<?xml version="1.0" standalone="no"?><!DOCTYPE svg PUBLIC "-//W3C//DTD SVG 1.1//EN" "http://www.w3.org/Graphics/SVG/1.1/DTD/svg11.dtd"><svg t="1650081010626" class="icon" viewBox="0 0 1024 1024" version="1.1" xmlns="http://www.w3.org/2000/svg" p-id="2802" xmlns:xlink="http://www.w3.org/1999/xlink" width="200" height="200"><defs><style type="text/css">@font-face { font-family: feedback-iconfont; src: url("//at.alicdn.com/t/font_1031158_u69w8yhxdu.woff2?t=1630033759944") format("woff2"), url("//at.alicdn.com/t/font_1031158_u69w8yhxdu.woff?t=1630033759944") format("woff"), url("//at.alicdn.com/t/font_1031158_u69w8yhxdu.ttf?t=1630033759944") format("truetype"); }
</style></defs><path d="M676.61 852.39H347.38a55.262 55.262 0 0 1-47.86-27.63L134.9 539.63a55.285 55.285 0 0 1 0-55.27l164.62-285.13a55.262 55.262 0 0 1 47.86-27.63h329.23c19.74 0 37.99 10.53 47.86 27.63L889.1 484.37a55.285 55.285 0 0 1 0 55.27L724.48 824.76a55.278 55.278 0 0 1-47.87 27.63z m-297.32-55.26h265.42c19.74 0 37.99-10.53 47.86-27.63l132.71-229.86a55.285 55.285 0 0 0 0-55.27L692.57 254.51a55.262 55.262 0 0 0-47.86-27.63H379.29a55.262 55.262 0 0 0-47.86 27.63L198.72 484.37a55.285 55.285 0 0 0 0 55.27L331.43 769.5a55.27 55.27 0 0 0 47.86 27.63z" p-id="2803" fill="#ff5252"></path><path d="M512 654.93c-78.81 0-142.93-64.12-142.93-142.93S433.19 369.07 512 369.07 654.93 433.19 654.93 512 590.81 654.93 512 654.93z m0-230.59c-48.34 0-87.66 39.32-87.66 87.66s39.32 87.66 87.66 87.66 87.66-39.32 87.66-87.66-39.33-87.66-87.66-87.66z" p-id="2804" fill="#ff5252"></path></svg>