<?xml version="1.0" standalone="no"?><!DOCTYPE svg PUBLIC "-//W3C//DTD SVG 1.1//EN" "http://www.w3.org/Graphics/SVG/1.1/DTD/svg11.dtd"><svg t="1652150245469" class="icon" viewBox="0 0 1024 1024" version="1.1" xmlns="http://www.w3.org/2000/svg" p-id="1994" xmlns:xlink="http://www.w3.org/1999/xlink" width="200" height="200"><defs><style type="text/css">@font-face { font-family: feedback-iconfont; src: url("//at.alicdn.com/t/font_1031158_u69w8yhxdu.woff2?t=1630033759944") format("woff2"), url("//at.alicdn.com/t/font_1031158_u69w8yhxdu.woff?t=1630033759944") format("woff"), url("//at.alicdn.com/t/font_1031158_u69w8yhxdu.ttf?t=1630033759944") format("truetype"); }
</style></defs><path d="M854.33 810.29L717.45 673.41c44.41-54.18 71.11-123.4 71.11-198.76 0-173.14-140.86-314.01-314.01-314.01-173.14 0-314 140.86-314 314.01 0 173.14 140.86 314 314 314 75.45 0 144.75-26.76 198.95-71.27l136.86 136.86c12.14 12.14 31.82 12.14 43.96 0 12.15-12.13 12.15-31.81 0.01-43.95z m-631.6-335.63c0-138.86 112.97-251.84 251.84-251.84S726.41 335.8 726.41 474.66 613.43 726.49 474.56 726.49 222.73 613.52 222.73 474.66z" p-id="1995" fill="#9ca3af"></path></svg>