<?xml version="1.0" encoding="UTF-8"?>
<svg width="64px" height="64px" viewBox="0 0 64 64" version="1.1" xmlns="http://www.w3.org/2000/svg" xmlns:xlink="http://www.w3.org/1999/xlink">
    <title>3</title>
    <g id="首页" stroke="none" stroke-width="1" fill="none" fill-rule="evenodd">
        <g id="画板" transform="translate(-1653.000000, -1843.000000)">
            <g id="3" transform="translate(1655.000000, 1849.000000)">
                <circle id="椭圆形" fill-opacity="0.1" fill="#5F6869" cx="45.5" cy="36.5" r="16.5"></circle>
                <path d="M3.14855405,17.9979365 L24.7262748,1.42325327 C28.3344382,-0.536744866 31.664549,-0.472370685 34.7166072,1.61637581 C37.7686654,3.70512231 45.7446301,9.71280734 58.6445013,19.6394309 C59.8205194,20.5894908 60.2313107,21.8715842 59.8768752,23.4857111 C59.5224396,25.099838 58.063362,25.9736703 55.4996425,26.1072082 L52.4580177,26.1072082 C51.3534482,26.1072082 50.4580177,27.0026387 50.4580177,28.1072082 L50.4580177,45.6241594 L50.4580177,45.6241594 C50.5507019,47.4049751 50.0826234,48.8657203 49.0537822,50.0063949 C48.024941,51.1470694 46.5693565,51.8116045 44.6870288,52 L15.6685848,52 C13.5603685,51.8639641 11.983922,51.1994291 10.9392453,50.0063949 C9.89456858,48.8133606 9.37223022,47.3526155 9.37223022,45.6241594 L9.37223022,28.0505218 C9.37223022,26.9683401 8.51145409,26.0824552 7.4297196,26.0513482 L3.14855405,25.9282366 L3.14855405,25.9282366 C1.59341559,25.4795483 0.597875472,24.6653731 0.161933694,23.4857111 C-0.274008084,22.3060491 0.170249444,20.9595815 1.49470628,19.4463084 L3.14855405,17.9979365 Z" id="路径-11" stroke="#5F6869" stroke-width="4"></path>
                <path d="M30,32 C31.6568542,32 33.1568542,32.6715729 34.2426407,33.7573593 C35.3284271,34.8431458 36,36.3431458 36,38 L36,38 L36,51 L24,51 L24,38 C24,36.3431458 24.6715729,34.8431458 25.7573593,33.7573593 C26.8431458,32.6715729 28.3431458,32 30,32 Z" id="矩形" stroke="#5F6869" stroke-width="4"></path>
            </g>
        </g>
    </g>
</svg>