<?xml version="1.0" encoding="UTF-8"?>
<svg width="64px" height="64px" viewBox="0 0 64 64" version="1.1" xmlns="http://www.w3.org/2000/svg" xmlns:xlink="http://www.w3.org/1999/xlink">
    <title>4</title>
    <g id="首页" stroke="none" stroke-width="1" fill="none" fill-rule="evenodd">
        <g id="画板" transform="translate(-1795.000000, -1843.000000)">
            <g id="4" transform="translate(1804.000000, 1846.000000)">
                <circle id="椭圆形" fill-opacity="0.1" fill="#5F6869" cx="34.6290323" cy="39.2903226" r="16.5"></circle>
                <circle id="椭圆形" stroke="#5F6869" stroke-width="4" cx="22.3145161" cy="13.7983871" r="11.7983871"></circle>
                <path d="M30.7086223,55.1239218 L40.3824153,55.1319782 C42.6910845,54.7347757 44.3654343,53.4592508 45.4054645,51.3054034 C45.584505,50.1843997 45.6774194,49.0356772 45.6774194,47.8658407 C45.6774194,35.5936983 35.4521807,25.6451613 22.8387097,25.6451613 C10.2252386,25.6451613 0,35.5936983 0,47.8658407 C0,49.1469949 0.11143856,50.4028256 0.325399205,51.6246575 C0.544514754,53.1560156 2.21719065,54.3251225 5.3434269,55.1319782 L28.0415732,55.1451613 L30.7086223,55.1239218 Z" id="路径" stroke="#5F6869" stroke-width="4"></path>
                <rect id="矩形" fill="#5F6869" x="20.9354839" y="34.2096774" width="3.80645161" height="12.3709677" rx="1.90322581"></rect>
            </g>
        </g>
    </g>
</svg>